# xmcd
#
# Track frame offsets:
# 150
# 23899
# 41712
# 48604
# 60335
# 66558
# 79085
# 95723
# 104562
# 114863
# 134974
# 141943
# 152800
# 166025
#
# Disc length: 2421 seconds
#
#
# Revision: 0
# Processed by: cddbd v1.5.1PL0 Copyright (c) Steve Scherf et al.
# Submitted via: FreeRIP 2.942 
#
DISCID=ca09730e
DTITLE=Irish Coffee - Haul Away
DYEAR=2002
DGENRE=Country
TTITLE0=Haul away High Barbaree - Mist on the Mountain
TTITLE1=Sally Gardens
TTITLE2=Gallant Forty Twa
TTITLE3=Mairi Bhan Og (Fair Young Mary)
TTITLE4=Cockles and Mussels
TTITLE5=The Ballydesmond Polka - Matt Teehan's Polka
TTITLE6=The Piper of Dundee
TTITLE7=Whiskey in the Jar
TTITLE8=The Rights of Men
TTITLE9=The Foggy Dew
TTITLE10=I'll tel Me Ma
TTITLE11=She's Like the Swallow
TTITLE12=The Rocky Road to Doublin - Kid On the Mountain
TTITLE13=Lanigan's Ball - Swallow Tail
EXTD=
EXTT0=
EXTT1=
EXTT2=
EXTT3=
EXTT4=
EXTT5=
EXTT6=
EXTT7=
EXTT8=
EXTT9=
EXTT10=
EXTT11=
EXTT12=
EXTT13=
PLAYORDER=
